<svg width="24" height="24" viewBox="0 0 24 24" fill="none" xmlns="http://www.w3.org/2000/svg">
  <!-- Brain/AI neural network icon -->
  <path d="M12 2C10.8954 2 10 2.89543 10 4V5C8.34315 5 7 6.34315 7 8V9C5.34315 9 4 10.3431 4 12C4 13.6569 5.34315 15 7 15V16C7 17.6569 8.34315 19 10 19V20C10 21.1046 10.8954 22 12 22C13.1046 22 14 21.1046 14 20V19C15.6569 19 17 17.6569 17 16V15C18.6569 15 20 13.6569 20 12C20 10.3431 18.6569 9 17 9V8C17 6.34315 15.6569 5 14 5V4C14 2.89543 13.1046 2 12 2Z" stroke="currentColor" stroke-width="2" stroke-linecap="round" stroke-linejoin="round"/>
  <!-- Neural connections -->
  <circle cx="12" cy="12" r="2" fill="currentColor"/>
  <circle cx="8" cy="8" r="1.5" fill="currentColor"/>
  <circle cx="16" cy="8" r="1.5" fill="currentColor"/>
  <circle cx="8" cy="16" r="1.5" fill="currentColor"/>
  <circle cx="16" cy="16" r="1.5" fill="currentColor"/>
  <!-- Connection lines -->
  <line x1="12" y1="12" x2="8" y2="8" stroke="currentColor" stroke-width="1.5" opacity="0.4"/>
  <line x1="12" y1="12" x2="16" y2="8" stroke="currentColor" stroke-width="1.5" opacity="0.4"/>
  <line x1="12" y1="12" x2="8" y2="16" stroke="currentColor" stroke-width="1.5" opacity="0.4"/>
  <line x1="12" y1="12" x2="16" y2="16" stroke="currentColor" stroke-width="1.5" opacity="0.4"/>
</svg>
