<svg width="24" height="24" viewBox="0 0 24 24" fill="none" xmlns="http://www.w3.org/2000/svg">
  <!-- Brain/AI Icon with Chart -->
  <path d="M12 2C10.8954 2 10 2.89543 10 4V6C10 6.55228 10.4477 7 11 7H13C13.5523 7 14 6.55228 14 6V4C14 2.89543 13.1046 2 12 2Z" fill="#8B5CF6" opacity="0.8"/>
  <path d="M9 8C7.34315 8 6 9.34315 6 11V13C6 14.6569 7.34315 16 9 16H11V8H9Z" fill="#A78BFA" opacity="0.6"/>
  <path d="M15 8C16.6569 8 18 9.34315 18 11V13C18 14.6569 16.6569 16 15 16H13V8H15Z" fill="#A78BFA" opacity="0.6"/>
  <circle cx="8" cy="11" r="1.5" fill="#7C3AED"/>
  <circle cx="16" cy="11" r="1.5" fill="#7C3AED"/>
  <path d="M7 18C7 17.4477 7.44772 17 8 17H16C16.5523 17 17 17.4477 17 18V20C17 21.1046 16.1046 22 15 22H9C7.89543 22 7 21.1046 7 20V18Z" fill="#DDD6FE" opacity="0.5"/>
  <!-- Chart bars -->
  <rect x="9" y="19" width="1.5" height="2" rx="0.5" fill="#8B5CF6"/>
  <rect x="11.25" y="18" width="1.5" height="3" rx="0.5" fill="#7C3AED"/>
  <rect x="13.5" y="19.5" width="1.5" height="1.5" rx="0.5" fill="#A78BFA"/>
  <!-- Sparkle effect -->
  <path d="M20 4L19 6L17 7L19 8L20 10L21 8L23 7L21 6L20 4Z" fill="#FCD34D" opacity="0.9"/>
  <path d="M4 6L3.5 7L2 7.5L3.5 8L4 9.5L4.5 8L6 7.5L4.5 7L4 6Z" fill="#FCD34D" opacity="0.7"/>
</svg>
